<mxfile host="app.diagrams.net" agent="Mozilla/5.0 (Windows NT 10.0; Win64; x64) AppleWebKit/537.36 (KHTML, like Gecko) Chrome/131.0.0.0 Safari/537.36" version="25.0.3">
  <diagram name="PÃ¡gina-1" id="RXmfWTW03x0S1gFNnv9d">
    <mxGraphModel dx="683" dy="351" grid="1" gridSize="10" guides="1" tooltips="1" connect="1" arrows="1" fold="1" page="1" pageScale="1" pageWidth="827" pageHeight="1169" math="0" shadow="0">
      <root>
        <mxCell id="0" />
        <mxCell id="1" parent="0" />
        <mxCell id="alVsrLRzjzwbj43s4-p6-8" value="" style="edgeStyle=orthogonalEdgeStyle;rounded=0;orthogonalLoop=1;jettySize=auto;html=1;" edge="1" parent="1" source="alVsrLRzjzwbj43s4-p6-1" target="alVsrLRzjzwbj43s4-p6-2">
          <mxGeometry relative="1" as="geometry" />
        </mxCell>
        <mxCell id="alVsrLRzjzwbj43s4-p6-1" value="INICIO" style="strokeWidth=2;html=1;shape=mxgraph.flowchart.start_1;whiteSpace=wrap;" vertex="1" parent="1">
          <mxGeometry x="341" y="30" width="146" height="50" as="geometry" />
        </mxCell>
        <mxCell id="alVsrLRzjzwbj43s4-p6-16" value="" style="edgeStyle=orthogonalEdgeStyle;rounded=0;orthogonalLoop=1;jettySize=auto;html=1;" edge="1" parent="1" source="alVsrLRzjzwbj43s4-p6-2">
          <mxGeometry relative="1" as="geometry">
            <mxPoint x="414" y="200" as="targetPoint" />
          </mxGeometry>
        </mxCell>
        <mxCell id="alVsrLRzjzwbj43s4-p6-2" value="PRODUTO" style="html=1;strokeWidth=2;shape=manualInput;whiteSpace=wrap;rounded=1;size=26;arcSize=11;" vertex="1" parent="1">
          <mxGeometry x="364" y="110" width="100" height="60" as="geometry" />
        </mxCell>
        <mxCell id="alVsrLRzjzwbj43s4-p6-17" value="" style="edgeStyle=orthogonalEdgeStyle;rounded=0;orthogonalLoop=1;jettySize=auto;html=1;" edge="1" parent="1" source="alVsrLRzjzwbj43s4-p6-3">
          <mxGeometry relative="1" as="geometry">
            <mxPoint x="414" y="280" as="targetPoint" />
            <Array as="points">
              <mxPoint x="414" y="280" />
            </Array>
          </mxGeometry>
        </mxCell>
        <mxCell id="alVsrLRzjzwbj43s4-p6-3" value="VALOR" style="html=1;strokeWidth=2;shape=manualInput;whiteSpace=wrap;rounded=1;size=26;arcSize=11;" vertex="1" parent="1">
          <mxGeometry x="364" y="200" width="100" height="60" as="geometry" />
        </mxCell>
        <mxCell id="alVsrLRzjzwbj43s4-p6-19" value="" style="edgeStyle=orthogonalEdgeStyle;rounded=0;orthogonalLoop=1;jettySize=auto;html=1;" edge="1" parent="1" source="alVsrLRzjzwbj43s4-p6-4">
          <mxGeometry relative="1" as="geometry">
            <mxPoint x="414" y="360" as="targetPoint" />
          </mxGeometry>
        </mxCell>
        <mxCell id="alVsrLRzjzwbj43s4-p6-4" value="DESCONTO" style="html=1;strokeWidth=2;shape=manualInput;whiteSpace=wrap;rounded=1;size=26;arcSize=11;" vertex="1" parent="1">
          <mxGeometry x="364" y="280" width="100" height="60" as="geometry" />
        </mxCell>
        <mxCell id="alVsrLRzjzwbj43s4-p6-23" style="edgeStyle=orthogonalEdgeStyle;rounded=0;orthogonalLoop=1;jettySize=auto;html=1;" edge="1" parent="1" source="alVsrLRzjzwbj43s4-p6-5">
          <mxGeometry relative="1" as="geometry">
            <mxPoint x="413.9999999999998" y="440" as="targetPoint" />
          </mxGeometry>
        </mxCell>
        <mxCell id="alVsrLRzjzwbj43s4-p6-5" value="PRECOFINAL = VALOR - DESCONTO" style="rounded=1;whiteSpace=wrap;html=1;absoluteArcSize=1;arcSize=14;strokeWidth=2;" vertex="1" parent="1">
          <mxGeometry x="244" y="370" width="340" height="50" as="geometry" />
        </mxCell>
        <mxCell id="alVsrLRzjzwbj43s4-p6-25" style="edgeStyle=orthogonalEdgeStyle;rounded=0;orthogonalLoop=1;jettySize=auto;html=1;" edge="1" parent="1" source="alVsrLRzjzwbj43s4-p6-6">
          <mxGeometry relative="1" as="geometry">
            <mxPoint x="414" y="550" as="targetPoint" />
          </mxGeometry>
        </mxCell>
        <mxCell id="alVsrLRzjzwbj43s4-p6-6" value="&lt;div&gt;PRODUTO&lt;/div&gt;&lt;div&gt;VALOR&lt;/div&gt;&lt;div&gt;DESCONTO&lt;/div&gt;&lt;div&gt;PRECOFINAL&lt;/div&gt;" style="strokeWidth=2;html=1;shape=mxgraph.flowchart.display;whiteSpace=wrap;" vertex="1" parent="1">
          <mxGeometry x="339" y="450" width="150" height="80" as="geometry" />
        </mxCell>
        <mxCell id="alVsrLRzjzwbj43s4-p6-7" value="FIM" style="strokeWidth=2;html=1;shape=mxgraph.flowchart.start_1;whiteSpace=wrap;" vertex="1" parent="1">
          <mxGeometry x="340" y="560" width="146" height="50" as="geometry" />
        </mxCell>
      </root>
    </mxGraphModel>
  </diagram>
</mxfile>
